<?xml version="1.0" standalone="no"?>
<!DOCTYPE svg PUBLIC "-//W3C//DTD SVG 20010904//EN"
 "http://www.w3.org/TR/2001/REC-SVG-20010904/DTD/svg10.dtd">
<svg version="1.0" xmlns="http://www.w3.org/2000/svg"
 width="163.000000pt" height="117.000000pt" viewBox="0 0 163.000000 117.000000"
 preserveAspectRatio="xMidYMid meet">

<g transform="translate(0.000000,117.000000) scale(0.100000,-0.100000)"
fill="#000000" stroke="none">
<path d="M203 852 c-67 -31 -121 -57 -120 -59 2 -1 52 13 112 32 127 40 125
40 125 19 0 -17 25 -29 183 -85 73 -26 107 -34 107 -26 0 8 -57 35 -132 63
-131 48 -133 50 -136 82 -2 17 -6 32 -10 31 -4 0 -62 -26 -129 -57z"/>
<path d="M320 558 c1 -122 -2 -224 -7 -225 -4 -2 -49 -7 -98 -12 -76 -7 -52
-9 153 -10 l242 -1 -2 192 -3 191 -130 44 c-71 23 -135 43 -143 43 -10 0 -12
-45 -12 -222z m109 141 l31 -11 0 -79 0 -79 -27 6 c-16 3 -34 7 -40 10 -15 4
-19 164 -4 164 4 0 22 -5 40 -11z m123 -35 c5 -3 8 -36 8 -75 0 -74 -3 -77
-57 -63 -19 5 -22 14 -25 81 l-3 74 35 -6 c19 -4 38 -9 42 -11z m-114 -140
c20 -6 22 -12 22 -85 l0 -79 -40 0 -40 0 0 85 c0 92 2 94 58 79z m120 -92 l3
-72 -41 0 -40 0 0 78 0 79 38 -6 37 -6 3 -73z"/>
<path d="M1601 688 c0 -32 2 -58 7 -58 4 0 6 19 4 43 -5 70 -10 76 -11 15z"/>
<path d="M827 713 c-11 -10 -8 -71 3 -78 6 -4 10 12 10 39 0 47 -2 51 -13 39z"/>
<path d="M1219 711 c-6 -18 2 -81 10 -81 4 0 5 17 3 38 -5 50 -8 60 -13 43z"/>
<path d="M725 665 c0 -19 3 -35 6 -35 4 0 9 16 11 35 2 20 0 35 -7 35 -5 0
-10 -16 -10 -35z"/>
<path d="M775 665 c0 -19 5 -35 10 -35 7 0 9 15 7 35 -2 19 -7 35 -11 35 -3 0
-6 -16 -6 -35z"/>
<path d="M875 689 c-12 -18 4 -59 23 -59 14 0 14 2 3 9 -8 5 -12 19 -9 35 5
26 -5 35 -17 15z"/>
<path d="M920 686 c0 -9 5 -16 10 -16 6 0 10 4 10 9 0 6 -4 13 -10 16 -5 3
-10 -1 -10 -9z"/>
<path d="M965 665 c0 -19 3 -35 8 -35 4 0 7 16 7 35 0 19 -3 35 -7 35 -5 0 -8
-16 -8 -35z"/>
<path d="M1000 689 c0 -5 5 -7 10 -4 6 3 10 8 10 11 0 2 -4 4 -10 4 -5 0 -10
-5 -10 -11z"/>
<path d="M1030 665 c0 -19 5 -35 10 -35 6 0 10 16 10 35 0 19 -4 35 -10 35 -5
0 -10 -16 -10 -35z"/>
<path d="M1084 665 c1 -19 4 -35 9 -35 10 0 9 58 -1 64 -5 3 -8 -11 -8 -29z"/>
<path d="M1130 689 c0 -5 5 -7 10 -4 6 3 10 8 10 11 0 2 -4 4 -10 4 -5 0 -10
-5 -10 -11z"/>
<path d="M1170 666 c0 -20 5 -36 10 -36 6 0 10 13 10 29 0 17 -4 33 -10 36 -6
4 -10 -8 -10 -29z"/>
<path d="M1270 665 c0 -19 5 -35 10 -35 6 0 10 16 10 35 0 19 -4 35 -10 35 -5
0 -10 -16 -10 -35z"/>
<path d="M1315 679 c-4 -13 -2 -27 6 -35 12 -11 14 -8 14 21 0 39 -10 46 -20
14z"/>
<path d="M1365 665 c0 -19 5 -33 10 -32 6 2 10 16 10 32 0 16 -4 30 -10 32 -5
2 -10 -13 -10 -32z"/>
<path d="M1415 665 c0 -19 3 -35 6 -35 4 0 9 16 11 35 2 20 0 35 -7 35 -5 0
-10 -16 -10 -35z"/>
<path d="M1465 665 c0 -19 5 -35 10 -35 7 0 9 15 7 35 -2 19 -7 35 -11 35 -3
0 -6 -16 -6 -35z"/>
<path d="M1510 689 c0 -5 5 -7 10 -4 6 3 10 8 10 11 0 2 -4 4 -10 4 -5 0 -10
-5 -10 -11z"/>
<path d="M1553 665 c1 -19 5 -35 9 -35 4 0 8 16 8 35 0 19 -4 35 -9 35 -5 0
-9 -16 -8 -35z"/>
<path d="M1131 657 c-6 -8 -8 -17 -4 -20 12 -12 19 -7 19 13 0 24 0 24 -15 7z"/>
<path d="M1517 663 c-10 -9 -9 -33 1 -33 4 0 8 9 9 20 2 21 0 24 -10 13z"/>
<path d="M820 525 c0 -30 5 -55 10 -55 6 0 10 25 10 55 0 30 -4 55 -10 55 -5
0 -10 -25 -10 -55z"/>
<path d="M1130 516 c0 -37 3 -46 18 -46 13 0 14 2 3 9 -9 6 -12 20 -9 40 3 18
1 34 -4 37 -4 3 -8 -15 -8 -40z"/>
<path d="M777 535 c-15 -15 -12 -50 5 -61 5 -3 6 5 2 20 -4 16 -1 32 6 41 16
19 6 19 -13 0z"/>
<path d="M972 541 c-17 -10 -12 -63 6 -69 11 -3 11 -1 0 17 -10 17 -10 25 0
41 14 22 13 23 -6 11z"/>
<path d="M1188 510 c-2 -22 0 -40 4 -40 5 0 8 18 8 40 0 22 -2 40 -4 40 -2 0
-6 -18 -8 -40z"/>
<path d="M1281 527 c9 -21 9 -30 -1 -42 -11 -13 -10 -14 4 -9 20 8 21 47 0 64
-13 12 -14 10 -3 -13z"/>
<path d="M1373 537 c4 -10 7 -30 7 -43 0 -13 5 -24 10 -24 17 0 11 57 -7 71
-15 12 -16 12 -10 -4z"/>
<path d="M868 510 c6 -42 19 -46 14 -4 -2 19 -7 34 -11 34 -4 0 -6 -14 -3 -30z"/>
<path d="M920 505 c0 -19 4 -35 8 -35 4 0 6 16 4 35 -2 19 -6 35 -8 35 -2 0
-4 -16 -4 -35z"/>
<path d="M1085 510 c3 -44 15 -49 15 -7 0 21 -4 37 -9 37 -5 0 -8 -14 -6 -30z"/>
<path d="M1230 511 c0 -17 4 -32 8 -35 5 -3 8 11 8 29 -1 42 -16 47 -16 6z"/>
<path d="M1330 505 c0 -19 3 -35 8 -35 4 0 7 16 7 35 0 19 -3 35 -7 35 -5 0
-8 -16 -8 -35z"/>
<path d="M1047 503 c-10 -9 -9 -33 1 -33 4 0 8 9 9 20 2 21 0 24 -10 13z"/>
<path d="M1026 370 c1 -70 14 -76 14 -7 0 31 -4 57 -8 57 -4 0 -7 -23 -6 -50z"/>
<path d="M830 350 c0 -22 4 -40 8 -40 5 0 9 18 10 40 1 22 -3 40 -8 40 -6 0
-10 -18 -10 -40z"/>
<path d="M880 351 c0 -23 2 -41 4 -41 8 0 12 71 4 76 -4 3 -8 -13 -8 -35z"/>
<path d="M928 349 c2 -21 8 -39 13 -39 14 0 11 56 -4 68 -10 8 -12 2 -9 -29z"/>
<path d="M982 378 c-16 -16 -15 -43 1 -56 9 -8 12 -1 12 29 0 21 0 39 0 39 -1
0 -6 -5 -13 -12z"/>
<path d="M1077 383 c-9 -9 -9 -63 1 -63 4 0 7 16 8 35 1 38 0 38 -9 28z"/>
<path d="M1120 370 c8 -14 7 -26 -1 -42 -11 -21 -11 -22 4 -9 21 17 22 57 2
65 -13 4 -14 2 -5 -14z"/>
<path d="M1161 383 c0 -5 6 -24 13 -42 9 -24 15 -31 20 -22 5 7 3 18 -3 24 -6
6 -11 19 -11 29 0 10 -4 18 -10 18 -5 0 -10 -3 -9 -7z"/>
<path d="M1210 373 c1 -26 26 -68 33 -56 6 10 -19 73 -29 73 -2 0 -4 -8 -4
-17z"/>
</g>
</svg>
